# xmcd
#
# Track frame offsets:
#	150
#	14683
#	31536
#	47391
#	59963
#	80153
#	95694
#	107655
#	140494
#	158126
#	182190
#	201795
#
# Disc length: 2926 seconds
# Revision: 3
# Processed by: cddbd v1.5.2PL0 Copyright (c) Steve Scherf et al.
# Submitted via: dBpowerAMP V12.0
#
DISCID=a50b6c0c
DTITLE=Jamey Johnson - The Guitar Song, CD01 - CD02
DYEAR=2010
DGENRE=Country
TTITLE0=Lonely at the Top
TTITLE1=Cover Your Eyes
TTITLE2=Poor Man Blues
TTITLE3=Set 'Em Up Joe
TTITLE4=Playing the Part
TTITLE5=Baby Don't Cry
TTITLE6=Heaven Bound
TTITLE7=Can't Cash My Checks
TTITLE8=That's How I Don't Love You
TTITLE9=Heartache
TTITLE10=Mental Revenge
TTITLE11=Even the Skies Are Blue
EXTD=
EXTT0=
EXTT1=
EXTT2=
EXTT3=
EXTT4=
EXTT5=
EXTT6=
EXTT7=
EXTT8=
EXTT9=
EXTT10=
EXTT11=
PLAYORDER=
